<svg xmlns="http://www.w3.org/2000/svg" width="27" height="35" viewBox="0 0 27 35" fill="none">
    <path
        d="M23.8109 14.1345V14.6345H24.3109H24.9929C25.6635 14.6345 26.4012 15.3778 26.4012 16.5584V32.5674C26.4012 33.7493 25.6613 34.5 24.9929 34.5H1.90837C1.23987 34.5 0.5 33.7493 0.5 32.5674V16.5584C0.5 15.3777 1.23775 14.6345 1.90829 14.6345H2.59034H3.09034V14.1345V10.9426C3.09034 5.30057 7.5677 0.602252 13.1398 0.502076C13.2938 0.499308 13.6075 0.499308 13.7615 0.502076C19.3334 0.602252 23.8109 5.30057 23.8109 10.9426V14.1345ZM16.9641 22.4762V22.4761C16.9641 20.6954 15.5877 19.1359 13.7908 19.0633C13.6175 19.0563 13.2839 19.0563 13.1107 19.0633C11.3137 19.1359 9.9373 20.6954 9.9373 22.4761C9.9373 23.3409 10.2456 24.1379 10.788 24.7462V29.384C10.788 30.211 11.4725 30.9067 12.3061 30.9067H14.5952C15.4288 30.9067 16.1133 30.211 16.1133 29.384V24.7462C16.6557 24.1379 16.964 23.341 16.9641 22.4762ZM6.58538 14.1345V14.6345H7.08538H13.1308H13.7705H19.8159H19.816H20.316V14.1345V10.9426C20.316 7.15534 17.2396 4.0182 13.4506 4.0182C9.66163 4.0182 6.58538 7.15535 6.58538 10.9426V14.1345Z"
        fill="#A2F7CA" stroke="none" />
</svg>