<svg width="50" height="50" viewBox="0 0 50 50" fill="none" xmlns="http://www.w3.org/2000/svg">
<path d="M25 50C38.8071 50 50 38.8071 50 25C50 11.1929 38.8071 0 25 0C11.1929 0 0 11.1929 0 25C0 38.8071 11.1929 50 25 50Z" fill="#D42428"/>
<path d="M33.9419 30.7967H32.329L32.3369 29.8604C32.3369 29.4439 32.6784 29.104 33.0964 29.104H33.1998C33.6178 29.104 33.9608 29.444 33.9608 29.8604L33.9419 30.7967ZM27.8947 28.7901C27.4869 28.7901 27.1522 29.0652 27.1522 29.4016V33.9551C27.1522 34.2914 27.4869 34.5649 27.8947 34.5649C28.3056 34.5649 28.6403 34.2914 28.6403 33.9551V29.4011C28.6403 29.0652 28.3056 28.7901 27.8947 28.7901ZM37.7135 26.2435V34.9053C37.7135 36.9833 35.9118 38.6832 33.7087 38.6832H17.2433C15.0398 38.6832 13.2386 36.9829 13.2386 34.9053V26.2435C13.2386 24.1655 15.0399 22.4649 17.2433 22.4649H33.7091C35.9117 22.4649 37.7135 24.1659 37.7135 26.2435ZM18.3412 35.846L18.3404 26.7216L20.3814 26.7224V25.37L14.9404 25.3616V26.6904L16.639 26.6956V35.8456H18.3412V35.846ZM24.4599 28.0811H22.7581V32.9532C22.7581 33.6583 22.8003 34.0108 22.7557 34.1347C22.6168 34.5125 21.9947 34.9136 21.7526 34.1758C21.7116 34.0463 21.7479 33.6563 21.7472 32.9863L21.7392 28.0807H20.0469L20.0532 32.9089C20.054 33.6491 20.0363 34.201 20.0587 34.4521C20.1002 34.895 20.0848 35.4117 20.4966 35.7058C21.2616 36.2581 22.7293 35.6238 23.0964 34.8353L23.0932 35.8412L24.4595 35.8432V28.0811H24.4599ZM29.904 33.6602L29.9009 29.6049C29.8993 28.059 28.7434 27.1333 27.173 28.3839L27.1801 25.3687L25.4799 25.3714L25.4715 35.7777L26.8694 35.7571L26.9965 35.1085C28.7836 36.7492 29.9071 35.6258 29.904 33.6602ZM35.2308 33.123L33.9542 33.1297C33.9542 33.1807 33.9519 33.2387 33.951 33.3026V34.0148C33.951 34.3957 33.6364 34.706 33.2539 34.706H33.0039C32.6207 34.706 32.3061 34.3957 32.3061 34.0148V33.9359V33.1519V32.1413H35.2281V31.0415C35.2281 30.2382 35.2072 29.4348 35.1409 28.9753C34.9321 27.5214 32.8919 27.2909 31.8608 28.035C31.5372 28.2675 31.2904 28.5785 31.146 28.9971C31.0011 29.4152 30.9293 29.9855 30.9293 30.7111V33.129C30.9303 37.1483 35.8123 36.5802 35.2308 33.123ZM28.685 19.9949C28.7722 20.2089 28.9084 20.3814 29.0943 20.5124C29.2763 20.6403 29.5108 20.7055 29.7906 20.7055C30.0358 20.7055 30.2532 20.6391 30.442 20.5022C30.631 20.366 30.7905 20.1631 30.92 19.8915L30.8876 20.5595H32.7844V12.4922H31.291V18.7708C31.291 19.1103 31.0104 19.3886 30.6681 19.3886C30.3281 19.3886 30.0467 19.1103 30.0467 18.7708V12.4922H28.4885V17.9331C28.4885 18.6264 28.5008 19.0886 28.5217 19.3231C28.544 19.5559 28.5973 19.779 28.685 19.9949ZM22.9366 15.4387C22.9366 14.6642 23.0013 14.0598 23.1292 13.624C23.2579 13.1893 23.4908 12.84 23.8264 12.5771C24.1619 12.3122 24.5915 12.18 25.1125 12.18C25.5511 12.18 25.9273 12.2664 26.2419 12.435C26.5565 12.6047 26.8008 12.8246 26.969 13.0966C27.1419 13.3694 27.258 13.65 27.3207 13.937C27.3847 14.2275 27.4155 14.6669 27.4155 15.2579V17.2983C27.4155 18.0468 27.3855 18.597 27.3275 18.9469C27.2702 19.2975 27.1464 19.6223 26.9544 19.9267C26.765 20.2283 26.5202 20.4536 26.2233 20.5973C25.9241 20.743 25.5819 20.814 25.1942 20.814C24.7624 20.814 24.3975 20.7544 24.0979 20.6293C23.7971 20.5053 23.5642 20.3182 23.3988 20.0699C23.2306 19.8213 23.1134 19.5185 23.0427 19.1656C22.9709 18.8123 22.9369 18.2821 22.9369 17.5747V15.4387H22.9366ZM24.4216 18.6437C24.4216 19.1 24.7623 19.473 25.1763 19.473C25.5904 19.473 25.9288 19.1004 25.9288 18.6437V14.3488C25.9288 13.8925 25.5904 13.5194 25.1763 13.5194C24.7623 13.5194 24.4216 13.892 24.4216 14.3488V18.6437ZM19.1717 20.812H20.9619L20.9635 14.6246L23.0783 9.3242H21.1207L19.9964 13.2619L18.8559 9.31396H16.9193L19.1689 14.6282L19.1717 20.812Z" fill="white"/>
</svg>
